<mxfile host="Electron" agent="Mozilla/5.0 (X11; Linux x86_64) AppleWebKit/537.36 (KHTML, like Gecko) draw.io/24.7.5 Chrome/126.0.6478.183 Electron/31.3.0 Safari/537.36" version="24.7.5">
  <diagram name="Seite-1" id="h9EqhrNaxIanACUFN9_X">
    <mxGraphModel dx="1061" dy="628" grid="0" gridSize="10" guides="1" tooltips="1" connect="1" arrows="1" fold="1" page="1" pageScale="1" pageWidth="827" pageHeight="1169" math="0" shadow="0">
      <root>
        <mxCell id="0" />
        <mxCell id="1" parent="0" />
        <mxCell id="LZ3DSBkG0D8QlsYGnTBR-28" value="" style="edgeStyle=none;rounded=0;orthogonalLoop=1;jettySize=auto;html=1;entryX=0.5;entryY=0;entryDx=0;entryDy=0;" edge="1" parent="1" source="LZ3DSBkG0D8QlsYGnTBR-1" target="LZ3DSBkG0D8QlsYGnTBR-26">
          <mxGeometry relative="1" as="geometry" />
        </mxCell>
        <mxCell id="LZ3DSBkG0D8QlsYGnTBR-1" value="app.component" style="swimlane;whiteSpace=wrap;html=1;fillColor=#FFFF33;" vertex="1" parent="1">
          <mxGeometry x="20" y="40" width="260" height="200" as="geometry">
            <mxRectangle x="20" y="40" width="120" height="30" as="alternateBounds" />
          </mxGeometry>
        </mxCell>
        <mxCell id="LZ3DSBkG0D8QlsYGnTBR-9" value="&lt;span style=&quot;background-color: rgb(46, 255, 185);&quot;&gt;HTML&lt;/span&gt;&lt;div&gt;&lt;br&gt;&lt;/div&gt;&lt;div&gt;&amp;lt;app-header&amp;gt;&lt;/div&gt;&lt;div&gt;&amp;lt;router-outlet&amp;gt;&lt;/div&gt;" style="text;strokeColor=none;fillColor=none;align=left;verticalAlign=middle;spacingLeft=4;spacingRight=4;overflow=hidden;points=[[0,0.5],[1,0.5]];portConstraint=eastwest;rotatable=0;whiteSpace=wrap;html=1;" vertex="1" parent="LZ3DSBkG0D8QlsYGnTBR-1">
          <mxGeometry y="30" width="260" height="60" as="geometry" />
        </mxCell>
        <mxCell id="LZ3DSBkG0D8QlsYGnTBR-22" value="" style="endArrow=none;dashed=1;html=1;rounded=0;entryX=1;entryY=0.5;entryDx=0;entryDy=0;exitX=0;exitY=0.5;exitDx=0;exitDy=0;" edge="1" parent="1" source="LZ3DSBkG0D8QlsYGnTBR-1" target="LZ3DSBkG0D8QlsYGnTBR-1">
          <mxGeometry width="50" height="50" relative="1" as="geometry">
            <mxPoint x="50" y="200" as="sourcePoint" />
            <mxPoint x="100" y="150" as="targetPoint" />
          </mxGeometry>
        </mxCell>
        <mxCell id="LZ3DSBkG0D8QlsYGnTBR-26" value="main-content.component" style="swimlane;whiteSpace=wrap;html=1;fillColor=#FFFF33;startSize=23;" vertex="1" parent="1">
          <mxGeometry x="20" y="270" width="260" height="200" as="geometry">
            <mxRectangle x="20" y="40" width="120" height="30" as="alternateBounds" />
          </mxGeometry>
        </mxCell>
        <mxCell id="LZ3DSBkG0D8QlsYGnTBR-27" value="&lt;span style=&quot;background-color: rgb(46, 255, 185);&quot;&gt;HTML&lt;/span&gt;&lt;div&gt;&lt;br&gt;&lt;/div&gt;&lt;div&gt;&amp;lt;app-map-dashboard&amp;gt;&lt;/div&gt;&lt;div&gt;&amp;lt;app-table-dashboard&amp;gt;&lt;/div&gt;" style="text;strokeColor=none;fillColor=none;align=left;verticalAlign=middle;spacingLeft=4;spacingRight=4;overflow=hidden;points=[[0,0.5],[1,0.5]];portConstraint=eastwest;rotatable=0;whiteSpace=wrap;html=1;" vertex="1" parent="LZ3DSBkG0D8QlsYGnTBR-26">
          <mxGeometry y="30" width="260" height="60" as="geometry" />
        </mxCell>
        <mxCell id="LZ3DSBkG0D8QlsYGnTBR-29" value="main-content.component" style="swimlane;whiteSpace=wrap;html=1;fillColor=#FFFF33;startSize=23;" vertex="1" parent="1">
          <mxGeometry x="373" y="487" width="260" height="200" as="geometry">
            <mxRectangle x="20" y="40" width="120" height="30" as="alternateBounds" />
          </mxGeometry>
        </mxCell>
        <mxCell id="LZ3DSBkG0D8QlsYGnTBR-30" value="&lt;span style=&quot;background-color: rgb(46, 255, 185);&quot;&gt;HTML&lt;/span&gt;&lt;div&gt;&lt;br&gt;&lt;/div&gt;&lt;div&gt;&amp;lt;app-map-dashboard&amp;gt;&lt;/div&gt;&lt;div&gt;&amp;lt;app-table-dashboard&amp;gt;&lt;/div&gt;" style="text;strokeColor=none;fillColor=none;align=left;verticalAlign=middle;spacingLeft=4;spacingRight=4;overflow=hidden;points=[[0,0.5],[1,0.5]];portConstraint=eastwest;rotatable=0;whiteSpace=wrap;html=1;" vertex="1" parent="LZ3DSBkG0D8QlsYGnTBR-29">
          <mxGeometry y="30" width="260" height="60" as="geometry" />
        </mxCell>
      </root>
    </mxGraphModel>
  </diagram>
</mxfile>
